<svg version="1.1" id="Layer_1" xmlns="http://www.w3.org/2000/svg" xmlns:xlink="http://www.w3.org/1999/xlink" x="0px" y="0px"
	 width="100%" viewBox="100 100 600 600"  xml:space="preserve" style="background-color:#444">

 	<path id="arrow" class="st0"   fill="#a03" opacity="1" stroke="none" d="
M16,279c0,-93,0,-186,0,-278c266,0,533,0,800,0c0,267,0,534,0,802c-267,0,-534,0,-800,0c0,-175,0,-349,0,-524m263,410c5,4,11,4,15,-1c3,-4,2,-10,-2,-14c-3,-3,-9,-3,-12,0c-4,4,-5,9,-1,15m-250,-354c-5,5,-6,10,-3,14c3,4,9,6,14,3c4,-2,6,-8,3,-13c-2,-5,-7,-7,-14,-4m380,-241c-6,-4,-13,-2,-16,5c-1,5,1,10,5,12c5,2,10,1,13,-3c3,-4,3,-9,-2,-14m-260,548c4,4,9,5,13,2c4,-3,6,-8,4,-12c-2,-5,-8,-8,-13,-6c-6,3,-8,8,-4,16m554,-56c-5,-1,-9,1,-10,5c-2,3,-1,8,0,10c2,5,6,6,11,5c4,-2,6,-4,7,-9c0,-5,-2,-9,-8,-11m-48,-3c-7,-1,-11,2,-12,7c-1,5,2,10,7,12c5,2,10,-1,12,-6c2,-5,0,-10,-7,-13m-602,-15c7,6,16,4,18,-3c1,-5,-1,-9,-5,-11c-3,-3,-8,-2,-12,1c-3,3,-4,7,-1,13m43,-377c9,2,15,-3,14,-11c-1,-4,-4,-7,-9,-8c-4,-1,-9,2,-10,6c-2,5,-1,9,5,13m661,369c2,7,7,10,13,8c5,-2,7,-7,6,-12c-1,-4,-5,-8,-10,-7c-6,0,-9,4,-9,11m-44,-2c2,9,11,11,17,6c3,-4,3,-8,1,-12c-1,-4,-6,-6,-10,-5c-5,0,-8,4,-8,11m-310,0c2,8,9,11,15,7c4,-3,6,-8,4,-12c-2,-4,-6,-7,-11,-6c-5,0,-8,4,-8,11m-284,-67c5,-1,9,-2,10,-8c1,-4,0,-8,-4,-11c-4,-2,-8,-3,-11,1c-2,2,-4,6,-4,9c0,5,4,8,9,9m563,-237c4,-7,-3,-15,-11,-14c-4,1,-7,4,-8,9c-1,4,2,8,6,10c4,2,9,1,13,-5m-575,131c-4,2,-6,5,-6,10c0,4,3,7,7,8c4,2,8,1,11,-3c2,-3,3,-7,1,-11c-3,-4,-7,-6,-13,-4m-35,-30c4,1,8,1,11,-3c1,-2,2,-6,2,-9c-1,-5,-5,-8,-10,-7c-5,0,-8,2,-9,7c-2,4,0,8,6,12m102,352c3,-5,3,-9,0,-13c-3,-3,-7,-4,-11,-3c-4,2,-6,4,-6,9c-1,4,1,7,5,9c4,3,8,2,12,-2m275,-693c-5,0,-9,3,-9,8c-1,5,1,8,5,10c4,2,7,2,11,-1c3,-2,4,-6,3,-10c-1,-4,-4,-7,-10,-7m-131,6c-9,-1,-15,5,-12,13c2,4,5,7,10,6c4,0,8,-3,9,-7c1,-5,-1,-9,-7,-12m6,771c5,-1,8,-4,9,-9c1,-4,0,-7,-4,-10c-3,-2,-7,-2,-11,0c-4,3,-5,6,-4,10c1,5,4,8,10,9m190,-102c-3,-4,-8,-4,-12,-1c-4,2,-6,6,-5,10c1,5,5,8,9,8c3,-1,7,-2,9,-5c3,-3,3,-8,-1,-12m-269,-329c-4,-2,-9,-1,-12,3c-1,3,-2,7,-1,10c1,4,5,6,9,6c5,0,8,-2,9,-7c2,-5,0,-9,-5,-12m-216,39c8,-1,11,-6,10,-12c-1,-6,-7,-9,-12,-8c-5,1,-8,5,-8,10c0,5,3,9,10,10m253,-95c4,-4,4,-8,1,-13c-2,-3,-5,-5,-9,-4c-5,1,-8,3,-9,8c-1,4,1,8,4,10c4,3,9,3,13,-1m265,122c3,7,8,10,14,7c5,-2,8,-8,5,-13c-2,-4,-6,-7,-11,-6c-5,1,-8,5,-8,12m-442,5c-3,4,-3,9,0,13c2,3,6,4,10,3c5,-1,7,-4,7,-9c1,-4,-1,-7,-5,-9c-4,-3,-8,-2,-12,2m574,132c6,1,10,-2,11,-7c1,-5,-1,-9,-5,-11c-5,-3,-11,-1,-14,4c-2,6,0,11,8,14m-571,-9c-8,-1,-13,5,-11,12c1,5,5,8,10,8c4,-1,8,-4,9,-9c1,-4,-1,-9,-8,-11m16,118c3,7,9,9,14,6c5,-2,7,-9,4,-13c-2,-4,-7,-6,-11,-5c-5,1,-8,5,-7,12m431,13c4,-4,5,-9,2,-13c-3,-4,-7,-5,-12,-4c-5,2,-8,8,-6,13c3,6,8,8,16,4m-242,-557c8,1,13,-6,11,-13c-2,-4,-6,-7,-10,-6c-5,0,-9,3,-9,8c-1,4,1,8,8,11m-107,55c-6,-3,-10,-2,-14,2c-3,3,-3,9,0,13c4,4,10,4,14,1c5,-4,5,-10,0,-16m-13,493c6,-3,8,-9,5,-14c-3,-4,-8,-6,-13,-4c-5,2,-7,7,-6,12c2,5,7,8,14,6m384,40c0,-2,0,-4,-1,-6c-2,-4,-7,-7,-11,-5c-5,1,-8,6,-7,11c0,4,4,8,9,8c5,1,8,-2,10,-8m-451,-199c-3,6,-3,10,0,13c4,4,7,5,12,3c4,-2,6,-6,5,-10c0,-3,-3,-6,-5,-8c-4,-3,-8,-2,-12,2m505,144c-1,4,-1,8,3,11c2,1,6,2,9,2c5,-1,8,-5,7,-10c0,-5,-2,-8,-7,-9c-4,-2,-8,0,-12,6m-321,-283c-2,5,-2,9,1,12c2,4,6,5,10,3c3,-1,6,-4,7,-7c1,-5,-1,-8,-5,-11c-4,-2,-8,-2,-13,3m441,-174c-6,-6,-15,-2,-17,4c-1,5,1,9,5,12c4,2,9,1,12,-2c4,-4,4,-9,0,-14m-136,486c-2,-7,-6,-10,-12,-9c-6,2,-9,7,-8,13c1,4,6,7,10,7c6,0,9,-4,10,-11m-490,-348c-5,-4,-10,-5,-15,-1c-4,5,-4,11,1,15c3,3,8,3,12,1c5,-3,5,-8,2,-15m507,281c-2,-5,-6,-7,-11,-7c-4,0,-7,3,-8,7c-2,4,-1,8,3,11c3,2,7,3,11,1c4,-3,6,-6,5,-12m-542,-27c-2,-4,-5,-6,-10,-6c-5,1,-7,3,-9,7c-1,4,0,8,4,11c3,3,7,3,11,1c4,-3,6,-7,4,-13m46,-444c4,-6,2,-14,-5,-16c-5,-1,-10,1,-12,6c-2,4,-1,9,3,12c4,3,9,3,14,-2m76,575c-1,-9,-10,-13,-16,-8c-4,3,-5,7,-3,12c1,4,5,6,10,6c4,0,8,-3,9,-10m27,-553c7,-2,10,-7,8,-12c-1,-5,-6,-8,-11,-7c-5,0,-9,5,-9,10c1,5,4,9,12,9m230,524c-4,-3,-9,-3,-13,0c-3,2,-4,6,-3,10c1,5,4,7,9,7c4,1,7,-1,9,-5c3,-4,2,-8,-2,-12m99,-549c-2,5,-1,9,3,12c4,3,8,3,11,0c4,-2,6,-6,4,-10c-1,-3,-4,-6,-7,-7c-4,-2,-8,0,-11,5m-506,247c6,6,15,5,17,-3c2,-5,1,-9,-4,-11c-3,-3,-7,-3,-11,0c-4,3,-5,7,-2,14m449,7c6,6,15,5,18,-3c1,-4,-1,-9,-5,-11c-4,-3,-8,-2,-12,1c-3,3,-4,7,-1,13m-43,4c-1,5,1,9,5,12c4,2,8,1,11,-1c4,-3,5,-7,4,-11c-2,-4,-4,-6,-9,-7c-5,0,-8,2,-11,7m-343,205c5,1,8,1,12,-3c2,-2,3,-6,2,-10c-2,-4,-5,-6,-9,-6c-5,0,-8,2,-10,6c-2,5,0,9,5,13m243,-506c-1,-6,-5,-9,-10,-9c-5,0,-9,4,-10,9c-1,5,3,10,8,11c6,1,11,-3,12,-11m-75,257c3,-4,3,-8,0,-11c-2,-3,-6,-4,-9,-5c-4,0,-8,3,-9,8c-1,4,1,8,5,10c4,3,8,2,13,-2m22,105c-4,-7,-14,-5,-17,2c-2,4,-1,9,3,11c3,3,8,3,12,1c4,-3,5,-7,2,-14m58,328c4,-3,5,-7,3,-11c-1,-3,-4,-5,-7,-6c-4,-2,-8,0,-11,4c-2,4,-1,8,2,12c3,3,7,4,13,1m349,-409c5,-5,6,-9,3,-14c-2,-4,-7,-5,-12,-4c-5,2,-8,8,-6,13c2,6,8,8,15,5m-407,-119c0,-7,-5,-11,-11,-10c-5,0,-9,5,-8,11c0,4,4,8,9,8c5,1,8,-2,10,-9m-74,189c3,3,7,5,11,3c3,-1,5,-4,6,-7c2,-4,0,-8,-4,-11c-4,-2,-8,-2,-12,2c-4,3,-4,7,-1,13m405,-313c-1,-6,-4,-9,-9,-9c-6,-1,-11,3,-11,8c-1,5,3,11,8,11c6,1,10,-2,12,-10m-423,-83c-1,6,2,11,7,12c5,1,10,-2,12,-7c2,-5,-1,-10,-6,-12c-5,-2,-10,0,-13,7m92,670c-3,-8,-10,-10,-16,-6c-4,3,-5,8,-3,12c2,5,7,7,11,6c5,-2,8,-5,8,-12m230,45c7,-2,10,-6,9,-12c-2,-6,-7,-9,-13,-8c-4,1,-7,6,-7,10c0,6,4,9,11,10m-266,-723c5,-2,8,-5,8,-11c0,-4,-4,-8,-8,-9c-6,-1,-11,3,-12,9c-1,6,3,10,12,11m-182,475c2,-6,1,-10,-3,-13c-4,-3,-8,-3,-12,0c-3,2,-5,6,-3,10c1,3,4,6,6,7c5,2,9,0,12,-4m251,-28c-2,-6,-5,-9,-10,-9c-5,0,-9,3,-10,8c-1,5,2,11,8,12c6,1,11,-3,12,-11m137,-468c3,7,9,10,15,7c4,-3,6,-7,5,-12c-2,-5,-6,-8,-11,-7c-5,1,-8,4,-9,12m-220,675c-6,-1,-9,2,-11,6c-1,5,0,9,3,11c4,3,8,4,11,1c2,-2,5,-5,5,-9c1,-4,-2,-7,-8,-9m154,-229c5,7,15,5,18,-3c1,-4,-1,-9,-4,-11c-5,-3,-9,-2,-12,1c-4,3,-5,7,-2,13m-152,19c1,0,2,0,3,0c5,-2,8,-7,7,-11c-1,-5,-5,-9,-10,-9c-5,0,-9,4,-10,8c0,6,3,10,10,12m-30,-78c6,1,10,-2,11,-7c2,-4,0,-9,-4,-11c-5,-3,-11,-2,-14,3c-3,6,-1,11,7,15m87,14c9,-2,11,-11,5,-17c-3,-3,-7,-4,-11,-2c-4,3,-6,6,-5,11c0,5,4,8,11,8m-79,217c-6,2,-9,7,-7,13c1,5,7,8,12,7c4,-2,7,-6,7,-11c-1,-5,-4,-8,-12,-9m-165,-216c-2,-7,-6,-10,-12,-9c-6,2,-9,7,-8,13c2,4,6,7,10,7c6,0,9,-3,10,-11m437,303c1,1,2,2,3,3c3,3,9,3,12,0c4,-3,5,-8,3,-12c-2,-4,-6,-6,-10,-6c-7,1,-10,7,-8,15m203,-267c0,-6,-3,-10,-8,-11c-5,-1,-10,2,-12,7c-1,6,2,11,7,12c5,2,10,0,13,-8m-262,-14c5,1,9,0,11,-4c3,-5,2,-11,-3,-14c-5,-3,-11,-1,-14,4c-3,5,-1,10,6,14m-36,336c1,-5,-1,-9,-5,-12c-4,-2,-8,-1,-12,1c-3,3,-4,7,-3,11c2,4,4,6,9,7c5,0,8,-2,11,-7m-311,-533c-2,-6,-6,-9,-11,-8c-4,0,-8,4,-9,8c-1,6,3,11,9,12c7,0,11,-4,11,-12m420,-210c6,6,14,2,16,-3c2,-4,0,-10,-3,-12c-4,-3,-10,-2,-13,1c-4,4,-4,9,0,14m133,136c9,2,16,-3,14,-11c-1,-5,-4,-7,-9,-8c-4,0,-9,2,-10,6c-2,5,-1,10,5,13m-522,70c-4,2,-6,5,-6,10c0,4,3,7,7,8c4,2,8,1,11,-3c3,-3,3,-7,1,-11c-3,-4,-7,-6,-13,-4m448,-193c1,-5,-1,-9,-6,-11c-3,0,-7,0,-10,2c-3,2,-4,6,-3,10c1,5,5,7,9,7c5,0,9,-2,10,-8m-85,203c-8,-1,-15,5,-13,12c1,5,4,7,9,8c5,0,9,-3,10,-7c2,-5,0,-9,-6,-13m119,-174c5,-4,6,-9,3,-14c-3,-4,-8,-6,-13,-3c-5,2,-7,8,-4,13c2,5,7,7,14,4m-280,167c9,-1,11,-11,7,-16c-3,-4,-7,-5,-12,-4c-4,2,-7,6,-6,11c1,5,4,8,11,9m457,177c7,-3,7,-12,3,-16c-4,-3,-9,-4,-13,-1c-4,3,-5,9,-3,13c2,4,7,6,13,4m-721,-226c-5,-1,-9,0,-11,4c-2,4,-2,8,0,11c3,4,6,5,11,4c4,-1,7,-4,7,-8c1,-5,-1,-9,-7,-11m710,79c-5,-4,-9,-5,-13,-2c-3,3,-5,6,-4,11c1,4,4,7,8,7c4,0,8,-2,10,-4c3,-3,2,-8,-1,-12m-401,105c-4,7,3,16,11,14c5,-1,7,-4,8,-9c1,-4,-2,-8,-6,-10c-5,-2,-9,0,-13,5m-260,-164c4,-5,5,-9,2,-13c-3,-4,-7,-5,-12,-4c-5,2,-8,8,-5,14c2,6,8,7,15,3m158,295c4,6,9,7,14,4c4,-3,6,-8,3,-13c-2,-5,-8,-7,-12,-5c-6,3,-7,8,-5,14m-27,-201c-3,-3,-7,-5,-11,-3c-3,2,-5,5,-6,8c-2,4,1,8,5,10c4,2,8,2,11,-1c4,-4,5,-8,1,-14m209,180c1,-7,-2,-11,-7,-12c-4,-1,-9,1,-11,5c-3,5,-1,11,4,13c5,3,11,1,14,-6m-51,-234c-7,1,-11,5,-10,11c1,5,5,9,10,9c5,0,9,-4,10,-9c0,-6,-3,-9,-10,-11m-269,-95c-8,2,-12,10,-8,16c3,4,7,5,11,4c5,-2,8,-6,7,-10c0,-5,-3,-8,-10,-10m252,266c2,-7,-1,-12,-7,-14c-5,-1,-10,2,-12,7c-1,4,1,10,5,12c5,3,10,1,14,-5m117,-11c-7,-2,-13,1,-14,6c-2,6,1,12,7,13c4,1,9,-1,11,-5c3,-5,2,-9,-4,-14m-181,25c-1,6,0,10,5,12c4,2,8,2,11,-1c3,-3,4,-7,3,-10c-1,-4,-4,-7,-8,-7c-5,-1,-8,1,-11,6m230,-353c3,-5,2,-9,-1,-13c-3,-3,-7,-4,-11,-2c-4,2,-6,5,-6,9c0,5,2,8,6,9c5,3,9,1,12,-3m-119,244c8,0,14,-7,11,-14c-2,-4,-6,-6,-11,-6c-4,1,-8,4,-8,9c-1,5,2,8,8,11m265,-20c-4,-1,-8,-1,-11,2c-2,3,-3,7,-3,10c1,4,4,7,9,7c5,1,8,-2,10,-6c2,-4,0,-9,-5,-13m-329,429c5,6,12,7,16,1c3,-4,3,-9,0,-13c-3,-3,-9,-4,-13,-1c-4,2,-5,7,-3,13m-7,-439c-4,-4,-8,-5,-13,-2c-3,3,-5,6,-4,11c1,4,4,7,8,7c3,0,7,-1,9,-3c4,-4,3,-8,0,-13m86,-246c2,6,5,9,10,9c5,0,8,-3,10,-7c1,-4,0,-8,-3,-11c-3,-2,-7,-3,-11,-2c-4,2,-6,6,-6,11m47,277c-7,1,-10,10,-6,16c3,4,8,5,13,3c4,-2,6,-7,5,-11c-1,-6,-5,-8,-12,-8m-106,-34c-3,4,-3,9,1,12c2,2,6,3,10,3c4,-1,7,-4,7,-9c0,-4,-2,-8,-6,-10c-5,-2,-9,-1,-12,4m-275,-18c-4,-1,-8,1,-10,6c-2,4,-2,7,1,10c3,4,7,4,11,3c4,-2,6,-5,7,-9c0,-5,-3,-8,-9,-10m29,-171c7,-1,11,-4,11,-10c0,-5,-4,-9,-9,-10c-5,0,-10,3,-11,8c-1,6,2,10,9,12m433,-12c-4,6,-3,11,1,15c4,3,10,2,14,-1c3,-4,4,-10,0,-14c-4,-4,-9,-5,-15,0m-1,534c-7,0,-12,3,-12,10c-1,5,4,10,9,10c5,0,9,-3,10,-7c2,-5,-1,-9,-7,-13m212,-273c-4,-1,-9,1,-10,5c-1,3,-1,7,0,10c2,4,7,5,11,4c4,-1,7,-4,7,-8c1,-6,-2,-9,-8,-11m-281,118c-4,1,-7,3,-8,7c-2,6,1,12,7,13c5,1,11,-3,12,-8c1,-6,-3,-11,-11,-12m-142,-261c-5,2,-6,6,-5,11c0,4,3,7,7,8c4,1,8,0,10,-4c3,-3,3,-7,1,-11c-3,-4,-7,-5,-13,-4m48,21c6,-2,9,-5,9,-11c-1,-5,-4,-8,-9,-9c-6,0,-11,4,-11,9c-1,6,3,10,11,11m286,378c-2,4,-2,8,0,12c3,3,6,4,10,4c4,-1,7,-3,8,-7c1,-5,0,-8,-4,-11c-4,-3,-8,-3,-14,2m-213,-151c1,-7,-1,-10,-6,-12c-4,-2,-9,0,-11,4c-4,4,-3,11,2,14c6,3,12,1,15,-6m-311,-319c2,-7,-1,-14,-7,-15c-5,0,-10,3,-11,7c-2,5,0,10,5,12c4,3,9,1,13,-4m136,394c8,2,14,-1,14,-8c1,-5,-2,-9,-7,-11c-5,-1,-9,1,-11,6c-3,5,-1,9,4,13m135,-292c4,3,9,4,12,1c4,-3,5,-7,4,-11c-1,-4,-4,-7,-9,-7c-3,0,-7,2,-9,5c-3,3,-2,8,2,12m-189,504c-2,8,3,15,11,14c4,-1,8,-4,8,-9c1,-4,-2,-9,-6,-10c-4,-2,-9,-1,-13,5m353,-586c-1,-5,-4,-7,-9,-8c-4,0,-7,1,-9,5c-3,4,-2,8,1,11c2,4,6,5,11,4c5,-2,7,-6,6,-12m-194,341c1,-4,1,-9,-3,-11c-3,-2,-7,-2,-10,-2c-4,1,-6,5,-6,9c0,5,2,9,7,10c5,1,9,-1,12,-6m-378,-253c5,5,13,2,15,-4c3,-5,0,-11,-5,-13c-4,-2,-9,0,-12,3c-3,5,-2,9,2,14m325,103c-3,-7,-8,-10,-14,-7c-5,3,-7,9,-4,14c2,4,7,6,11,5c5,-2,8,-5,7,-12m88,-6c-2,4,-2,9,1,12c3,2,7,3,10,3c4,0,7,-4,8,-8c0,-5,-2,-9,-6,-11c-5,-2,-9,-1,-13,4m-24,12c-4,-3,-9,-3,-12,1c-2,2,-3,7,-3,10c1,4,4,7,9,7c4,0,8,-2,10,-6c2,-5,0,-9,-4,-12m-42,-26c-4,3,-6,7,-4,12c2,4,5,6,10,6c5,0,8,-3,9,-7c0,-3,-1,-7,-3,-10c-2,-4,-7,-4,-12,-1m-39,68c4,-1,8,-4,7,-9c0,-3,-1,-6,-3,-9c-4,-3,-8,-3,-12,0c-4,3,-5,7,-4,11c2,5,5,7,12,7m364,-2c-4,-3,-8,-3,-13,0c-3,2,-4,6,-3,10c1,4,4,7,8,7c4,1,8,0,10,-4c3,-4,2,-8,-2,-13m-348,-145c-5,0,-8,3,-9,8c-1,5,1,8,5,10c4,2,7,2,11,0c3,-3,5,-7,3,-11c-1,-5,-4,-7,-10,-7m380,145c-1,0,-2,0,-3,0c-5,2,-7,7,-6,12c1,5,5,8,10,8c5,-1,9,-4,10,-9c0,-6,-3,-10,-11,-11m-197,-78c-3,-4,-6,-6,-11,-5c-4,1,-7,4,-8,8c0,4,1,8,5,10c4,3,8,2,11,0c4,-4,5,-8,3,-13m195,7c5,-4,6,-9,4,-13c-3,-4,-6,-6,-11,-5c-6,1,-9,7,-8,12c2,7,7,9,15,6m40,-17c-4,-1,-8,1,-10,5c-3,4,-1,11,3,13c5,3,12,1,14,-4c3,-5,1,-11,-7,-14m-256,-17c2,-5,2,-10,-3,-13c-3,-2,-8,-2,-12,1c-4,3,-5,10,-1,14c4,5,11,4,16,-2m-350,-230c-5,6,-5,12,0,15c4,4,10,3,13,0c4,-4,4,-10,1,-14c-3,-4,-8,-5,-14,-1m45,618c1,-7,-2,-11,-7,-13c-5,-1,-10,2,-12,7c-2,5,0,10,5,12c5,2,10,1,14,-6m15,-589c4,2,9,2,12,-2c1,-3,2,-7,2,-10c-1,-5,-5,-7,-9,-7c-5,0,-8,2,-10,6c-2,5,0,9,5,13m203,4c4,-1,8,-3,8,-8c0,-3,-2,-7,-4,-9c-3,-3,-7,-3,-12,-1c-3,3,-5,7,-4,11c1,5,5,7,12,7m248,550c-6,-4,-11,-3,-14,2c-3,4,-2,10,2,13c4,3,9,3,13,0c4,-4,4,-9,-1,-15m-199,-347c-2,-4,-5,-6,-10,-6c-4,0,-7,2,-9,7c-1,4,0,7,3,10c3,3,7,4,11,2c4,-2,6,-6,5,-13m5,456c-7,-3,-13,0,-15,5c-1,5,1,10,6,13c4,2,10,0,12,-4c3,-5,2,-10,-3,-14m-1,-655c1,-7,-1,-11,-5,-13c-5,-2,-10,0,-12,4c-3,5,-2,11,2,14c6,3,11,2,15,-5m-93,-104c-5,-4,-9,-5,-13,-2c-4,2,-5,7,-4,11c2,6,8,9,14,6c5,-2,7,-8,3,-15m133,442c-5,0,-9,2,-10,7c-1,5,1,8,4,11c4,2,7,2,11,0c4,-2,5,-6,5,-10c-1,-5,-5,-8,-10,-8m-325,-322c6,-4,7,-12,1,-16c-4,-3,-9,-3,-13,0c-3,3,-4,8,-2,12c3,5,7,6,14,4m-144,176c3,4,7,6,12,5c5,-1,9,-7,7,-12c-1,-5,-7,-9,-12,-7c-6,1,-8,6,-7,14m145,318c-2,-4,-6,-6,-10,-4c-3,1,-6,4,-7,7c-2,4,0,8,4,11c4,2,8,2,11,-1c4,-3,5,-7,2,-13m454,-5c-6,0,-10,2,-11,7c-1,4,1,8,4,11c4,2,8,2,12,-1c3,-2,4,-5,4,-9c-1,-5,-4,-7,-9,-8m-352,68c-6,5,-4,15,4,18c4,1,9,-1,11,-5c2,-4,2,-9,-1,-12c-3,-3,-8,-4,-14,-1m328,6c-4,8,4,16,11,14c5,-1,8,-4,8,-9c0,-5,-2,-8,-7,-10c-5,-2,-8,0,-12,5m-357,-605c6,-1,9,-4,10,-9c0,-4,-1,-8,-5,-10c-4,-2,-7,-2,-11,0c-3,3,-5,6,-4,10c1,5,4,8,10,9m69,616c0,8,10,12,16,8c3,-3,5,-8,3,-12c-1,-4,-5,-7,-10,-6c-5,0,-8,3,-9,10m65,-2c-4,-5,-8,-7,-13,-5c-4,2,-7,7,-6,11c1,6,6,9,12,8c6,-1,9,-6,7,-14m99,-623c3,-7,-4,-15,-12,-13c-4,1,-7,5,-7,10c0,4,2,7,6,9c5,2,9,0,13,-6m-196,272c6,3,12,2,15,-3c2,-5,1,-11,-4,-14c-4,-2,-9,-2,-13,2c-3,4,-3,9,2,15m-4,-289c0,6,3,10,8,11c5,1,10,-2,12,-7c1,-5,-2,-10,-7,-12c-5,-2,-10,1,-13,8m304,671c4,-4,5,-8,2,-13c-2,-4,-6,-5,-10,-5c-4,1,-7,4,-8,8c-1,4,0,7,3,10c4,3,8,3,13,0m-243,-668c4,-5,5,-9,3,-14c-3,-4,-8,-5,-12,-4c-6,2,-8,8,-6,13c2,6,8,8,15,5m86,671c-3,9,2,16,10,15c5,-1,8,-4,8,-9c1,-4,-1,-8,-5,-10c-5,-2,-9,-1,-13,4m-49,-671c6,1,10,-2,12,-7c1,-4,-1,-9,-5,-11c-5,-3,-11,-1,-14,4c-3,5,0,11,7,14m-174,681c-1,-6,-4,-9,-10,-9c-4,-1,-8,2,-9,6c-2,6,1,12,6,13c6,2,11,-2,13,-10m197,4c2,-8,-1,-14,-8,-14c-5,-1,-9,2,-11,7c-1,4,1,9,5,11c5,3,9,2,14,-4m-89,-6c1,-5,-1,-9,-5,-11c-4,-2,-8,-2,-11,1c-4,2,-5,6,-4,10c2,4,5,7,9,7c5,1,8,-2,11,-7m-317,-235c-4,2,-6,6,-5,10c0,4,3,7,7,8c4,2,8,1,10,-3c3,-3,3,-7,1,-11c-3,-5,-7,-6,-13,-4m241,-84c-6,2,-8,5,-8,11c1,4,5,8,9,8c5,1,11,-3,11,-8c1,-6,-3,-11,-12,-11m480,40c-3,-6,-9,-9,-14,-7c-6,3,-8,9,-5,14c2,4,7,6,11,5c5,-1,7,-4,8,-12m-6,-222c-2,9,7,14,12,12c5,-1,8,-5,8,-10c0,-4,-4,-8,-8,-9c-5,-1,-9,1,-12,7m-717,185c-2,-6,-6,-8,-11,-8c-4,1,-8,4,-8,8c-1,6,3,12,9,12c6,0,10,-4,10,-12m0,53c5,-4,6,-8,4,-13c-3,-5,-8,-7,-13,-5c-5,3,-7,8,-5,13c2,5,7,7,14,5m343,-18c-6,3,-8,7,-7,11c1,5,3,8,8,9c4,0,8,-1,10,-5c1,-3,1,-7,0,-10c-1,-4,-6,-6,-11,-5m-314,17c2,5,5,7,11,6c4,0,7,-3,8,-7c1,-4,0,-8,-4,-10c-3,-3,-7,-3,-11,-1c-4,2,-6,6,-4,12m356,-69c-5,3,-7,8,-4,13c2,5,8,7,12,5c5,-2,8,-7,6,-12c-2,-6,-6,-8,-14,-6m267,106c6,3,10,3,14,-1c3,-3,4,-8,1,-12c-3,-5,-10,-6,-14,-3c-5,4,-5,10,-1,16m40,-5c0,5,3,8,8,9c4,1,7,-1,10,-4c2,-4,2,-8,0,-11c-3,-4,-6,-5,-11,-4c-4,1,-7,4,-7,10m45,-7c-4,3,-6,7,-4,12c2,2,5,5,8,6c4,2,8,0,10,-4c2,-4,2,-8,-1,-12c-3,-4,-8,-4,-13,-2m-504,-121c-1,1,-2,2,-3,3c-2,3,-3,7,0,11c2,4,6,5,10,4c5,-1,8,-4,8,-8c1,-8,-6,-13,-15,-10m173,164c2,4,6,6,11,5c4,0,7,-3,8,-7c0,-4,-1,-8,-4,-11c-4,-2,-8,-2,-12,0c-4,3,-5,7,-3,13m-98,-257c-2,-6,-5,-9,-11,-9c-4,1,-8,4,-9,9c0,6,3,11,9,11c6,1,10,-3,11,-11m-83,-152c2,4,6,6,11,5c4,0,7,-3,8,-7c1,-4,-1,-8,-4,-11c-4,-2,-8,-2,-11,0c-5,3,-6,7,-4,13m426,6c7,0,11,-3,12,-8c1,-5,-1,-10,-6,-12c-5,-1,-10,1,-13,6c-2,5,0,10,7,14m-655,148c-3,4,-3,9,1,12c2,2,6,3,10,3c4,-1,7,-4,7,-9c0,-4,-2,-8,-6,-10c-4,-2,-9,0,-12,4m708,292c-5,4,-7,8,-5,12c2,5,5,7,10,7c4,0,8,-3,9,-7c2,-7,-4,-16,-14,-12m-178,-197c7,-6,4,-15,-3,-18c-4,-1,-9,1,-11,4c-3,4,-2,9,1,12c3,4,7,5,13,2m-205,163c1,8,6,13,13,11c4,-1,7,-5,7,-10c0,-5,-4,-9,-9,-9c-5,-1,-9,2,-11,8m-211,3c-6,5,-7,12,-1,17c4,2,9,2,12,-1c4,-3,5,-8,3,-12c-2,-5,-7,-6,-14,-4m551,-276c-4,-2,-9,-2,-12,2c-4,3,-5,6,-3,10c2,5,5,7,9,7c5,0,8,-2,9,-6c3,-5,1,-9,-3,-13m-336,-251c4,-2,6,-6,4,-10c-1,-3,-4,-6,-7,-7c-4,-2,-8,0,-11,4c-2,3,-2,8,1,11c3,4,7,5,13,2m93,747c-6,1,-10,4,-10,9c-1,5,3,10,8,11c5,1,10,-3,11,-8c1,-6,-2,-10,-9,-12m-272,-167c4,-2,6,-6,5,-11c0,-4,-3,-7,-7,-8c-4,-1,-8,1,-11,4c-2,4,-2,8,0,11c3,5,7,6,13,4m610,-130c5,-2,7,-5,7,-10c-1,-4,-3,-7,-7,-9c-4,-1,-7,0,-10,3c-3,3,-4,6,-2,11c1,4,5,6,12,5m-202,262c-5,-4,-10,-4,-14,-1c-3,3,-4,7,-3,11c1,4,4,7,8,7c4,-1,7,-2,10,-5c3,-3,2,-8,-1,-12m-480,-98c3,-4,4,-8,1,-12c-2,-4,-6,-5,-10,-5c-4,1,-7,4,-8,8c-1,4,0,8,4,10c4,3,8,3,13,-1m617,-480c-4,-4,-8,-5,-12,-2c-5,2,-6,5,-6,10c1,5,4,8,9,8c3,0,7,-2,9,-4c4,-3,3,-8,0,-12m-431,149c-4,4,-5,8,-2,13c2,4,6,5,10,5c5,-1,8,-4,8,-8c0,-4,-1,-8,-4,-10c-3,-3,-8,-3,-12,0m362,-212c-4,-2,-9,-2,-11,1c-2,2,-4,6,-4,9c0,5,4,8,9,8c4,1,9,-2,10,-6c2,-5,1,-9,-4,-12m-133,31c2,6,6,9,11,8c5,0,9,-4,9,-9c0,-6,-4,-10,-9,-11c-6,0,-10,3,-11,12m-66,153c-5,-1,-8,0,-11,4c-2,4,-2,8,0,11c2,4,6,5,10,4c5,0,8,-3,8,-8c1,-5,-1,-9,-7,-11m244,-74c-2,-7,-8,-10,-14,-8c-5,2,-7,7,-6,11c1,5,6,9,10,8c6,0,9,-4,10,-11m61,168c-2,-6,-6,-9,-12,-8c-5,1,-9,6,-8,12c1,4,5,8,10,8c6,-1,9,-4,10,-12m-395,127c-5,4,-7,9,-4,14c3,4,8,6,13,4c5,-3,7,-8,5,-13c-2,-5,-7,-7,-14,-5m363,-204c5,1,9,0,11,-5c3,-3,2,-7,0,-11c-3,-3,-7,-4,-11,-3c-4,1,-7,4,-7,8c0,5,2,9,7,11m-23,-45c1,0,2,1,2,2c5,2,9,2,12,-1c4,-3,5,-8,3,-12c-2,-5,-6,-6,-11,-6c-7,1,-10,9,-6,17m-537,-40c-4,-2,-8,-2,-12,2c-3,3,-3,6,-2,10c2,4,5,7,9,7c5,0,8,-2,10,-7c2,-5,0,-8,-5,-12m307,305c-3,4,-3,9,0,12c3,2,7,3,10,3c4,0,7,-4,8,-8c0,-5,-1,-9,-6,-11c-4,-2,-8,-1,-12,4m169,-302c4,-2,6,-6,4,-10c-1,-3,-4,-6,-7,-7c-4,-2,-8,-1,-11,3c-2,4,-2,8,0,12c3,4,7,5,14,2z">

<animate
       attributeName="fill"
       attributeType="XML"
       values="#45b6fe;white;orange"
       keyTimes= "0; 0.8; 1"
       dur="10s"
       repeatCount="indefinite"/>
        <animateTransform attributeType="xml" attributeName="transform" type="rotate" from="360 400 400" to="0 400 400" dur="123.5s" additive="sum" repeatCount="indefinite" />
  </path>
    <path fill="#001528" opacity="1" stroke="none"
	d="M813,286c0,176,0,352,0,527c-275,0,-550,0,-824,0c0,-267,0,-535,0,-803c274,0,549,0,823,0c1,91,1,183,1,276m-386,94c0,1,-1,2,-1,3c0,4,1,7,5,10c4,2,8,2,11,-1c3,-3,5,-7,3,-10c-1,-3,-4,-6,-7,-7c-4,-2,-8,0,-11,5m-325,216c2,3,4,6,6,8c4,3,9,2,12,-1c4,-3,4,-8,2,-12c-2,-4,-7,-6,-11,-5c-5,1,-8,5,-9,10m381,-474c2,-4,2,-9,-1,-12c-3,-3,-7,-4,-11,-3c-4,2,-6,4,-6,9c-1,4,1,8,5,9c5,3,9,1,13,-3m29,265c-3,4,-3,9,0,12c2,2,6,4,9,4c5,0,8,-3,9,-8c1,-5,-1,-9,-5,-11c-5,-2,-9,-1,-13,3m155,299c-4,-2,-8,-2,-11,1c-3,3,-4,7,-3,11c2,4,5,6,9,6c5,1,8,-2,10,-6c2,-5,0,-9,-5,-12m-386,-5c-9,3,-11,11,-5,17c3,3,7,3,12,1c3,-2,5,-7,4,-11c-1,-5,-5,-7,-11,-7m-153,-4c-5,5,-6,9,-3,14c3,4,7,5,12,4c5,-2,8,-8,6,-13c-2,-6,-8,-8,-15,-5m450,-31c-5,5,-5,11,0,15c4,3,10,3,13,0c4,-4,5,-9,2,-13c-4,-5,-8,-6,-15,-2m104,-430c-3,8,0,15,8,15c4,1,9,-2,10,-6c1,-5,0,-9,-4,-12c-4,-3,-9,-2,-14,3m60,15c-4,3,-6,7,-5,11c1,3,4,6,7,7c4,2,8,1,11,-3c3,-4,3,-8,0,-12c-3,-4,-7,-5,-13,-3m-287,10c-2,2,-3,2,-5,4c-3,3,-3,7,-1,11c3,4,6,5,10,5c5,-1,8,-4,9,-8c2,-6,-4,-12,-13,-12m-3,60c7,0,11,-3,11,-8c1,-5,-1,-9,-6,-11c-4,-2,-9,0,-12,4c-4,6,-1,12,7,15m13,189c-8,3,-10,10,-6,16c3,4,8,5,12,3c4,-2,7,-6,6,-11c-1,-5,-5,-8,-12,-8m-190,-195c-7,-1,-12,3,-13,9c0,6,4,11,9,11c5,0,9,-3,10,-7c2,-5,0,-9,-6,-13m452,19c4,1,8,1,11,-3c1,-2,2,-6,2,-9c-1,-5,-5,-8,-10,-7c-5,0,-8,2,-9,7c-1,5,1,9,6,12m3,173c2,4,5,7,10,6c5,0,8,-2,9,-7c1,-4,0,-7,-3,-10c-3,-3,-7,-3,-11,-1c-5,2,-6,6,-5,12m-467,-29c-4,-7,-12,-9,-17,-3c-3,4,-3,9,-1,12c3,4,8,5,12,4c5,-2,7,-6,6,-13m437,-138c-4,-2,-8,-2,-12,1c-3,3,-4,7,-3,11c1,4,4,6,9,6c4,1,8,-1,9,-5c3,-5,1,-9,-3,-13m-243,122c-3,4,-4,8,0,12c2,4,6,5,11,4c4,-1,6,-4,6,-8c1,-5,-1,-8,-4,-10c-4,-2,-9,-2,-13,2m-196,-106c-4,-5,-9,-7,-14,-4c-5,2,-7,8,-5,13c3,4,8,7,12,5c6,-2,8,-6,7,-14m177,96c4,-5,5,-10,1,-15c-4,-3,-10,-4,-14,0c-4,4,-5,9,-2,13c3,5,8,6,15,2m51,-21c1,-6,-2,-10,-7,-11c-5,-1,-9,1,-11,5c-3,5,-1,11,4,14c6,2,11,0,14,-8m24,281c-3,-4,-7,-6,-11,-5c-4,1,-7,4,-8,8c-1,4,1,8,5,10c3,3,7,3,11,0c4,-3,5,-7,3,-13m-93,-633c-4,3,-5,7,-3,12c2,4,5,6,9,6c5,0,8,-2,9,-6c2,-4,1,-8,-2,-11c-4,-4,-8,-4,-13,-1m205,49c5,5,12,5,16,-1c2,-4,2,-9,-1,-12c-4,-4,-9,-5,-13,-2c-5,4,-6,8,-2,15m-80,625c7,1,11,-2,12,-7c1,-4,-1,-9,-5,-11c-4,-3,-11,-1,-13,4c-3,5,-1,11,6,14m-29,-682c4,-2,6,-5,6,-10c-1,-5,-3,-7,-7,-9c-4,-1,-8,0,-11,4c-3,3,-3,7,-1,11c3,4,7,6,13,4m-235,304c-5,4,-7,9,-5,13c3,6,8,8,13,6c5,-2,8,-7,6,-12c-1,-6,-6,-8,-14,-7m77,-25c0,1,1,3,2,4c3,3,6,4,10,3c5,-1,7,-4,7,-9c1,-4,-1,-7,-5,-9c-7,-4,-15,1,-14,11m348,80c-8,1,-11,7,-9,13c2,5,7,7,11,6c5,0,8,-5,8,-9c1,-6,-3,-9,-10,-10m-455,8c-1,-1,-1,-2,-2,-3c-4,-4,-9,-4,-13,-1c-4,3,-5,9,-3,13c3,4,8,6,13,4c5,-2,7,-6,5,-13m-203,-183c0,7,3,12,9,12c6,0,11,-4,11,-10c0,-4,-3,-8,-7,-10c-6,-1,-10,1,-13,8m380,5c-2,-7,-7,-10,-13,-8c-5,1,-8,7,-6,12c1,5,5,7,10,7c5,-1,8,-4,9,-11m156,497c-5,4,-7,9,-4,14c2,5,8,7,13,5c4,-3,7,-8,5,-12c-2,-6,-7,-8,-14,-7m-485,-472c5,-4,7,-8,5,-13c-2,-5,-8,-8,-13,-6c-5,2,-8,7,-6,12c1,6,6,8,14,7m599,305c2,8,10,12,17,7c3,-4,4,-8,2,-12c-1,-4,-6,-7,-10,-6c-5,1,-8,4,-9,11m-193,-297c0,-1,0,-3,0,-4c-1,-5,-5,-8,-10,-8c-5,0,-9,3,-10,8c-1,5,2,10,6,11c6,2,10,0,14,-7m37,54c-2,2,-5,5,-5,7c-1,5,1,9,6,11c4,1,8,0,11,-3c3,-4,3,-9,1,-12c-3,-4,-7,-5,-13,-3m236,139c3,3,6,4,11,3c4,-2,6,-4,6,-9c1,-4,-1,-8,-5,-10c-4,-1,-8,-1,-11,2c-4,4,-5,8,-1,14m-672,-145c5,4,9,5,13,3c4,-3,6,-7,5,-11c-2,-3,-4,-6,-7,-7c-4,-2,-8,-1,-10,3c-4,3,-4,7,-1,12m266,-253c0,5,3,8,8,8c5,1,8,-1,10,-5c2,-4,2,-8,-1,-11c-3,-3,-6,-4,-10,-3c-5,1,-7,5,-7,11m163,609c1,6,4,10,9,10c4,1,9,-1,10,-5c3,-5,1,-11,-5,-14c-5,-2,-13,2,-14,9m81,4c3,3,6,5,11,3c2,-1,5,-4,6,-7c2,-4,0,-8,-4,-11c-4,-2,-8,-2,-11,1c-4,4,-5,8,-2,14m105,-492c-5,4,-7,8,-5,12c2,6,7,9,12,7c5,-1,9,-7,7,-12c-1,-6,-6,-8,-14,-7m-249,596c-1,-1,-1,-2,-2,-2c-4,-4,-9,-4,-13,-1c-4,3,-5,8,-3,12c2,5,7,7,12,5c6,-1,8,-6,6,-14m-81,-683c-5,-5,-9,-6,-14,-3c-4,3,-5,7,-4,12c2,5,8,8,13,6c6,-2,8,-8,5,-15m-291,55c-4,4,-4,8,-1,13c2,4,6,5,11,3c4,-1,7,-4,7,-8c-1,-4,-3,-7,-5,-9c-4,-3,-8,-2,-12,1m606,-4c-7,-2,-12,1,-14,6c-2,6,1,11,7,13c4,2,9,0,11,-4c3,-5,2,-10,-4,-15m-371,-91c-5,0,-8,3,-8,8c-1,5,1,8,4,10c4,2,8,2,12,-1c3,-2,4,-6,3,-10c-1,-5,-5,-7,-11,-7m1,41c-7,4,-9,10,-6,15c3,4,8,6,13,4c4,-2,7,-7,6,-12c-2,-5,-6,-7,-13,-7m-166,39c-6,7,-4,16,3,17c5,2,9,0,11,-4c3,-4,2,-8,-1,-12c-3,-3,-7,-4,-13,-1m-30,131c-1,-7,-5,-11,-11,-10c-5,1,-9,5,-9,10c0,5,4,9,9,10c6,1,10,-3,11,-10m411,-115c5,5,11,5,15,0c4,-5,3,-11,-2,-15c-3,-2,-8,-2,-12,1c-4,3,-4,7,-1,14m191,244c6,2,10,1,13,-3c3,-4,3,-8,0,-12c-2,-3,-6,-5,-10,-3c-3,1,-6,4,-7,6c-2,5,0,8,4,12m-398,-54c-3,-5,-7,-8,-12,-6c-4,1,-7,4,-7,9c-1,5,2,8,6,10c8,3,14,-3,13,-13m-239,295c-6,0,-11,4,-11,8c-1,5,3,11,8,12c5,1,10,-2,11,-6c2,-6,-1,-11,-8,-14m229,98c-6,-5,-15,-3,-16,3c-2,5,0,10,4,13c4,2,9,1,12,-2c4,-4,4,-8,0,-14m8,-273c3,4,7,6,11,4c3,-1,6,-4,7,-7c2,-4,0,-7,-3,-10c-4,-3,-8,-3,-11,0c-5,2,-6,6,-4,13m180,-40c-7,-5,-15,-3,-17,4c-1,5,1,9,5,12c4,2,9,1,12,-2c4,-4,4,-9,0,-14m174,44c7,4,14,1,16,-5c1,-5,-1,-10,-6,-12c-4,-2,-9,-1,-12,3c-3,4,-3,9,2,14m-494,259c-1,1,-2,1,-3,1c-4,3,-6,8,-4,13c1,4,7,7,12,6c5,-2,8,-6,8,-11c-1,-5,-6,-9,-13,-9m420,1c6,2,10,1,13,-3c3,-4,3,-9,0,-12c-4,-5,-11,-5,-15,-1c-4,4,-4,10,2,16m-555,-117c-1,2,-1,3,-1,4c0,1,1,3,2,4c3,3,6,6,10,4c3,-1,7,-4,8,-7c2,-4,1,-8,-4,-11c-6,-3,-11,-2,-15,6m318,-168c1,1,2,2,3,3c4,2,8,2,11,-1c2,-3,4,-7,4,-10c0,-4,-3,-7,-7,-8c-4,-1,-8,0,-10,3c-4,4,-4,8,-1,13m-14,358c8,-1,11,-5,11,-11c-1,-6,-6,-9,-11,-9c-5,1,-8,4,-9,9c-1,5,2,9,9,11m195,-700c0,-7,-3,-11,-9,-12c-6,0,-10,3,-11,9c0,5,3,9,7,10c5,2,10,0,13,-7m-4,-53c-2,-4,-5,-6,-10,-6c-5,1,-7,3,-9,7c-1,4,0,8,4,11c3,3,7,3,11,1c4,-3,6,-7,4,-13m-459,433c0,0,-1,1,-2,2c-3,4,-1,7,1,10c2,4,5,5,10,5c4,-1,6,-3,7,-7c2,-4,1,-8,-3,-11c-4,-3,-8,-3,-13,1m314,34c3,7,9,10,15,7c5,-3,6,-8,5,-12c-2,-5,-6,-8,-11,-7c-5,1,-8,4,-9,12m331,-163c5,-7,3,-15,-4,-17c-5,-1,-10,1,-12,5c-2,4,-1,9,2,12c4,4,9,4,14,0m-368,-123c-1,0,-2,-1,-3,-1c-4,0,-8,1,-10,5c-2,4,-1,8,1,12c3,3,7,4,11,2c3,-1,5,-4,7,-7c1,-4,-1,-8,-6,-11m407,192c6,0,9,-3,11,-7c1,-6,-2,-11,-7,-13c-5,-1,-11,2,-12,7c-2,5,0,10,8,13m-415,-10c-1,-7,-6,-11,-12,-9c-5,2,-8,6,-7,11c0,5,5,8,9,8c6,1,9,-3,10,-10m-321,-39c-3,5,-3,10,1,14c3,3,8,4,12,1c5,-3,6,-9,3,-14c-3,-5,-9,-6,-16,-1m504,34c-4,3,-6,6,-5,11c0,4,3,8,8,8c3,0,7,-1,9,-3c4,-3,4,-8,1,-12c-3,-4,-7,-6,-13,-4m-97,127c-5,4,-6,9,-4,14c2,4,7,6,12,5c5,-2,8,-7,7,-13c-2,-5,-7,-8,-15,-6m-110,-21c6,-3,9,-6,8,-11c-1,-5,-4,-8,-9,-9c-6,0,-11,4,-11,10c0,6,4,10,12,10m-141,167c-5,-1,-10,1,-12,5c-1,3,0,8,1,11c2,4,7,5,11,4c4,-2,6,-4,7,-9c0,-5,-2,-8,-7,-11m-34,-10c5,-3,7,-8,4,-13c-2,-5,-8,-7,-12,-5c-5,2,-7,7,-6,12c2,6,6,8,14,6m156,41c6,-4,7,-9,5,-14c-2,-4,-8,-6,-13,-4c-4,2,-7,7,-6,12c2,5,7,8,14,6m-185,-542c-9,0,-13,10,-8,16c3,4,7,5,12,3c4,-1,6,-5,6,-10c0,-5,-3,-8,-10,-9m512,481c7,-1,11,-6,10,-12c-1,-5,-5,-8,-10,-8c-5,0,-9,4,-10,9c0,5,3,9,10,11m-447,-20c-6,-2,-11,0,-13,5c-2,5,0,11,5,13c5,2,10,0,12,-4c3,-5,2,-10,-4,-14m48,-540c-7,-5,-16,-2,-17,6c0,4,2,8,6,10c4,2,9,1,12,-3c3,-4,3,-8,-1,-13m-130,122c-2,-5,-5,-8,-10,-8c-5,0,-9,3,-10,8c-1,6,3,11,9,12c6,1,10,-3,11,-12m-102,270c-9,4,-11,12,-5,17c4,3,8,4,12,1c4,-3,5,-6,4,-11c-1,-5,-5,-7,-11,-7m717,112c8,0,12,-5,11,-11c0,-5,-5,-9,-11,-9c-4,1,-8,4,-8,9c-1,5,2,9,8,11m-285,103c-8,2,-9,13,-3,17c4,3,9,3,12,1c4,-3,5,-8,4,-12c-2,-5,-6,-7,-13,-6m-83,4c-6,-2,-11,-1,-13,3c-3,4,-3,9,0,12c2,2,7,4,9,4c3,-1,7,-4,8,-7c2,-4,1,-8,-4,-12m-324,-132c-4,2,-4,6,-4,10c1,5,5,8,10,8c5,0,9,-3,10,-8c1,-4,-1,-8,-4,-10c-4,-3,-8,-2,-12,0m372,137c-5,-4,-9,-5,-14,-2c-3,3,-4,7,-3,11c1,4,4,6,8,7c4,1,8,-1,10,-4c2,-4,2,-8,-1,-12m-274,-125c7,0,9,-10,7,-15c-2,-4,-7,-6,-12,-5c-5,1,-8,6,-7,11c1,5,5,8,12,9m515,-36c-1,7,3,12,9,12c5,1,9,-2,10,-7c2,-5,-1,-10,-6,-12c-5,-2,-10,0,-13,7m-257,210c2,6,6,8,11,7c4,0,8,-4,9,-8c0,-6,-4,-11,-10,-11c-6,-1,-10,4,-10,12m-57,-206c2,-4,2,-8,-1,-11c-3,-2,-7,-3,-10,-3c-4,0,-7,4,-7,9c-1,4,1,8,6,10c4,2,9,0,12,-5m353,115c3,-8,-2,-16,-10,-15c-4,1,-8,3,-8,8c-1,4,0,8,5,11c4,2,8,1,13,-4m-619,-151c0,-6,-3,-10,-9,-11c-5,0,-10,3,-11,8c-1,6,3,11,9,12c5,1,10,-2,11,-9m23,-119c-5,-4,-9,-4,-13,-1c-4,3,-6,7,-4,11c2,3,5,5,8,6c4,2,7,0,10,-4c3,-4,2,-8,-1,-12m-78,-28c3,-7,1,-12,-5,-15c-5,-2,-11,1,-13,6c-2,4,0,9,4,12c4,3,8,2,14,-3m420,-43c-7,1,-11,4,-11,10c1,5,5,10,10,10c5,0,10,-4,10,-9c1,-5,-2,-9,-9,-11m338,-8c-4,-4,-8,-5,-12,-2c-4,3,-6,6,-5,10c1,4,3,7,7,8c4,1,8,0,11,-3c3,-4,3,-8,-1,-13m-571,-186c6,-3,8,-7,7,-12c-1,-6,-6,-9,-12,-8c-5,1,-8,6,-8,11c1,6,6,9,13,9m87,-13c-3,-4,-7,-5,-11,-3c-3,2,-5,5,-6,8c-2,4,1,8,5,10c4,2,8,2,11,-1c4,-4,5,-8,1,-14m-230,168c-4,3,-6,6,-5,11c1,4,4,8,8,8c3,0,7,-1,9,-3c4,-3,4,-8,1,-12c-3,-5,-7,-6,-13,-4m60,-148c4,3,9,3,12,-1c2,-2,3,-7,3,-10c-1,-4,-4,-7,-9,-7c-4,0,-8,2,-10,6c-2,4,-1,9,4,12m536,150c3,6,9,9,14,6c5,-3,7,-9,4,-14c-2,-4,-7,-6,-12,-5c-4,2,-7,6,-6,13m-525,-57c-1,6,1,11,7,13c5,1,10,-1,12,-6c2,-5,0,-11,-5,-13c-5,-2,-10,-1,-14,6m236,279c-4,4,-5,8,-2,13c3,3,6,5,11,4c4,-1,7,-4,7,-8c1,-4,0,-7,-3,-10c-4,-2,-8,-2,-13,1m117,23c2,0,5,0,8,0c4,-2,6,-7,5,-11c-1,-5,-5,-8,-10,-8c-4,0,-8,3,-9,7c-2,5,0,9,6,12m-208,192c-4,-2,-8,-1,-12,2c-3,3,-3,7,-2,11c2,4,5,6,9,6c5,0,9,-2,10,-6c2,-5,0,-10,-5,-13m373,-594c0,5,3,8,8,9c3,1,7,-1,9,-4c3,-3,3,-7,1,-11c-3,-4,-6,-6,-11,-5c-5,2,-7,5,-7,11m-78,579c6,1,11,0,13,-5c2,-4,1,-9,-3,-12c-4,-4,-11,-3,-14,1c-4,5,-2,11,4,16m134,-190c-2,4,-2,8,0,12c3,3,6,5,10,4c5,-1,8,-4,8,-9c1,-4,-1,-7,-5,-10c-4,-2,-8,-1,-13,3m-473,187c-6,-1,-9,2,-11,7c-1,2,1,6,2,8c3,5,7,6,12,4c4,-2,6,-6,6,-10c0,-5,-3,-8,-9,-9m160,-429c0,6,2,10,7,12c4,1,9,-1,11,-5c3,-5,1,-11,-4,-14c-6,-3,-11,0,-14,7m-160,381c-6,0,-11,3,-12,8c0,6,3,10,8,11c5,2,10,-1,12,-6c2,-6,-1,-10,-8,-13m300,-192c7,5,16,-1,15,-9c-1,-5,-4,-8,-8,-9c-5,-1,-8,1,-11,5c-2,4,-1,8,4,13m227,-178c4,-3,6,-7,4,-12c-1,-4,-4,-6,-8,-6c-5,-1,-8,1,-10,5c-2,4,-2,8,1,11c4,4,8,4,13,2m-382,263c-5,-6,-13,-7,-17,-1c-2,4,-2,9,1,13c4,3,9,4,13,1c4,-2,6,-7,3,-13m229,-343c1,5,4,8,9,8c3,0,6,-1,9,-3c3,-4,3,-8,0,-12c-2,-4,-6,-5,-10,-4c-5,1,-8,4,-8,11m-227,195c5,6,11,7,15,2c4,-3,5,-9,2,-13c-3,-4,-9,-5,-13,-3c-5,3,-6,7,-4,14m172,-36c0,-1,-1,-1,-2,-2c-5,-2,-10,0,-13,5c-2,4,-1,10,3,13c4,3,10,2,14,-2c3,-4,3,-8,-2,-14m-388,232c-7,0,-10,2,-12,6c-1,5,1,9,4,12c5,3,12,1,15,-4c3,-5,0,-11,-7,-14m-2,-402c0,6,2,9,7,11c4,1,8,-1,11,-4c2,-4,2,-8,0,-11c-2,-4,-6,-5,-10,-5c-5,1,-7,4,-8,9m440,432c6,3,12,1,14,-5c2,-6,-1,-11,-6,-13c-5,-1,-9,1,-12,4c-2,5,-1,9,4,14m-130,-261c1,-6,-1,-10,-6,-11c-4,-2,-9,0,-11,3c-4,5,-3,12,2,15c6,3,12,1,15,-7m-235,401c4,-3,7,-8,5,-12c-1,-5,-7,-9,-12,-7c-5,1,-9,7,-7,12c1,6,6,8,14,7m-155,-409c2,4,6,7,10,6c5,0,8,-3,9,-7c1,-4,0,-8,-3,-11c-4,-2,-8,-3,-11,-1c-5,3,-6,7,-5,13m1,80c-3,4,-4,9,-1,12c3,4,7,5,12,4c4,-2,6,-5,6,-9c0,-3,-2,-7,-5,-9c-3,-3,-8,-2,-12,2m362,300c-5,5,-5,11,0,15c3,3,9,3,13,0c3,-3,4,-9,1,-13c-3,-5,-8,-6,-14,-2m46,-384c6,5,12,5,16,0c3,-4,3,-9,0,-13c-4,-3,-9,-4,-13,-1c-5,3,-6,7,-3,14m-372,267c-6,7,0,16,6,17c5,0,9,-2,11,-6c2,-4,1,-9,-3,-12c-4,-3,-8,-3,-14,1m150,-591c0,6,2,10,7,11c4,1,8,-1,11,-4c2,-4,2,-8,0,-11c-2,-4,-6,-5,-10,-5c-5,1,-7,4,-8,9m-22,119c6,-4,7,-9,4,-14c-2,-4,-8,-6,-13,-4c-4,3,-6,8,-4,13c2,5,7,7,13,5m374,10c4,-1,8,-3,8,-8c0,-3,-2,-7,-5,-10c-3,-3,-7,-2,-11,1c-4,2,-5,6,-3,11c1,4,5,7,11,6m-426,9c3,5,6,8,11,7c4,0,8,-3,9,-7c1,-4,0,-8,-4,-10c-3,-3,-7,-3,-10,-1c-5,2,-7,6,-6,11m398,9c1,-7,0,-11,-5,-13c-5,-1,-9,0,-12,3c-3,5,-2,11,2,15c5,3,11,2,15,-5m72,420c-3,5,-3,9,0,13c3,4,8,5,12,3c4,-3,6,-6,5,-11c-1,-8,-10,-11,-17,-5m-21,-410c3,4,7,5,11,3c3,-1,5,-5,6,-8c2,-4,-1,-8,-5,-10c-4,-2,-9,-1,-12,2c-3,4,-3,8,0,13m-581,16c4,3,9,3,13,0c3,-3,4,-7,3,-11c-1,-4,-4,-6,-8,-7c-4,0,-8,1,-10,5c-3,4,-2,8,2,13m91,-114c-5,5,-6,9,-3,13c2,4,6,6,10,5c5,-1,8,-3,8,-7c0,-4,-1,-8,-3,-10c-3,-4,-7,-4,-12,-1m92,-41c1,-7,-3,-12,-9,-12c-6,0,-11,5,-10,10c0,5,3,9,7,10c5,1,9,-1,12,-8m121,-37c-7,-1,-14,6,-11,13c2,5,6,7,10,7c5,-1,8,-4,9,-8c1,-5,-1,-9,-8,-12m54,12c0,-6,-2,-10,-7,-12c-4,-1,-9,0,-11,4c-3,4,-2,11,3,14c5,3,11,1,15,-6m-102,752c-7,-1,-13,4,-12,10c0,5,4,9,9,9c5,1,9,-2,11,-7c1,-5,-1,-9,-8,-12m185,6c1,-7,-1,-12,-7,-14c-5,-1,-10,2,-12,7c-2,4,1,10,5,12c5,2,10,1,14,-5m-220,-4c0,-2,0,-4,0,-6c-1,-5,-7,-8,-12,-7c-5,1,-9,6,-8,11c1,5,4,8,8,8c5,1,9,-1,12,-6m248,-22c-5,4,-6,10,-3,15c4,4,10,4,15,1c3,-3,4,-8,2,-12c-2,-5,-7,-7,-14,-4m-213,-721c6,1,10,-1,11,-6c2,-4,1,-8,-3,-11c-5,-4,-11,-3,-14,2c-4,5,-2,12,6,15m134,2c6,1,11,0,13,-5c2,-5,1,-10,-3,-13c-5,-3,-11,-2,-14,3c-4,4,-2,10,4,15m44,85c-2,4,-1,8,2,11c2,3,6,4,10,3c4,-1,7,-4,7,-9c0,-5,-2,-8,-6,-10c-5,-2,-8,0,-13,5m-40,-42c8,2,15,-6,12,-13c-2,-5,-5,-7,-10,-7c-5,0,-8,4,-9,8c-1,5,1,9,7,12m-251,-7c-1,-8,-6,-12,-13,-10c-4,1,-7,6,-7,10c1,5,4,9,9,9c6,1,9,-2,11,-9m374,-9c-4,2,-7,5,-7,9c1,4,3,7,5,9c4,3,8,2,12,-1c3,-3,4,-7,2,-12c-2,-4,-6,-6,-12,-5m-290,17c2,-7,-6,-13,-13,-11c-4,1,-7,5,-7,10c0,5,4,9,8,9c5,1,9,-1,12,-8m208,11c8,4,16,-3,14,-11c-1,-5,-4,-8,-9,-8c-5,0,-8,2,-10,7c-2,4,0,8,5,12m-275,292c1,0,2,1,4,2c5,2,10,-1,12,-5c2,-5,0,-10,-4,-13c-4,-3,-10,-2,-13,3c-3,4,-3,8,1,13m202,-271c4,-7,3,-13,-3,-16c-6,-2,-12,0,-14,5c-1,4,0,9,3,12c4,3,9,3,14,-1m162,20c6,-3,9,-8,7,-13c-1,-5,-7,-8,-12,-7c-5,2,-8,6,-7,11c0,6,5,9,12,9m154,311c7,-6,5,-15,-2,-17c-5,-2,-9,0,-12,3c-2,4,-2,9,1,12c3,4,7,5,13,2m-255,-134c-3,-6,-8,-9,-13,-7c-5,2,-8,7,-7,12c2,5,6,8,11,7c6,0,9,-4,9,-12m-194,166c-1,5,1,9,5,11c4,2,8,2,11,-1c4,-2,5,-6,4,-10c-2,-4,-4,-7,-8,-7c-6,-1,-9,1,-12,7m90,10c5,-3,8,-6,7,-11c0,-4,-2,-7,-7,-9c-4,-1,-8,0,-10,4c-3,3,-3,7,-1,10c2,5,6,7,11,6m43,-6c7,-5,8,-13,2,-18c-4,-2,-8,-2,-12,1c-4,2,-5,8,-3,12c2,4,6,6,13,5m-379,-20c-5,5,-6,9,-3,14c3,4,8,5,12,4c5,-2,8,-8,6,-13c-2,-6,-8,-8,-15,-5m355,-150c-9,-3,-16,6,-13,12c2,5,5,7,10,7c5,0,8,-3,9,-7c2,-5,0,-9,-6,-12m-101,9c-6,-5,-12,-5,-16,1c-3,4,-3,9,1,13c4,3,9,3,13,1c4,-4,5,-9,2,-15m-290,120c-7,0,-10,2,-12,7c-1,5,1,9,5,11c5,3,12,1,14,-4c3,-6,0,-11,-7,-14m259,2c-1,6,1,11,7,13c5,1,10,-1,12,-6c2,-5,0,-10,-5,-13c-5,-2,-10,-1,-14,6m369,-191c5,5,14,3,16,-4c2,-5,0,-10,-4,-12c-4,-2,-9,-2,-12,1c-4,4,-4,9,0,15m-320,187c7,-4,9,-12,3,-17c-4,-3,-9,-3,-13,0c-3,3,-4,8,-3,12c2,4,6,6,13,5m-261,-13c-1,-5,-4,-8,-9,-8c-4,-1,-7,1,-9,4c-3,4,-3,8,0,12c3,3,7,4,11,3c5,-2,7,-5,7,-11m721,-49c7,-2,10,-7,8,-13c-1,-5,-7,-8,-12,-7c-5,2,-8,6,-7,11c0,6,4,9,11,9m-92,3c6,2,10,2,14,-2c2,-3,3,-8,0,-12c-3,-5,-9,-6,-14,-2c-5,3,-5,9,0,16m-322,-11c-3,-5,-8,-6,-13,-4c-5,2,-7,8,-5,13c2,5,8,7,13,5c5,-1,7,-6,5,-14m-366,44c5,4,10,5,14,1c4,-3,5,-9,2,-13c-3,-5,-9,-6,-14,-3c-4,3,-6,8,-2,15m277,1c5,-4,6,-11,1,-15c-3,-4,-9,-4,-13,-1c-4,3,-5,9,-2,13c2,5,7,6,14,3m35,-34c-8,0,-13,6,-11,13c1,4,5,7,10,7c5,0,9,-4,9,-8c1,-5,-1,-9,-8,-12m20,-86c-2,-4,-6,-6,-10,-4c-3,1,-6,4,-7,7c-2,4,-1,8,3,11c4,2,8,2,12,-1c4,-3,5,-7,2,-13m302,303c7,3,12,1,15,-4c2,-6,0,-12,-6,-14c-4,-2,-9,0,-11,4c-3,4,-3,8,2,14m-316,-345c0,0,0,1,0,1c1,5,4,8,9,8c4,1,9,-2,10,-6c2,-4,1,-8,-3,-11c-6,-5,-14,-2,-16,8m385,-1c-5,2,-8,5,-9,10c0,4,4,9,8,10c6,1,11,-3,12,-8c2,-6,-3,-11,-11,-12m-288,316c6,-2,10,-6,9,-12c-1,-5,-5,-9,-10,-8c-6,0,-10,4,-10,9c0,6,4,10,11,11m-325,-18c-2,-1,-3,-3,-4,-3c-3,0,-7,-1,-10,1c-2,1,-4,4,-5,7c0,4,2,9,7,10c4,2,8,1,11,-2c3,-4,3,-8,1,-13m195,-267c5,3,9,3,12,-1c3,-3,4,-6,3,-10c-2,-5,-5,-7,-9,-7c-5,0,-8,2,-10,6c-2,5,0,9,4,12m-261,0c5,6,12,6,16,1c3,-4,3,-9,-1,-13c-3,-4,-8,-5,-12,-2c-5,3,-6,8,-3,14m719,263c2,6,6,10,11,9c6,-1,10,-5,9,-10c0,-5,-4,-10,-9,-10c-6,0,-10,3,-11,11m-720,-16c-4,4,-5,8,-3,12c2,4,5,6,10,6c4,0,7,-3,9,-7c2,-4,0,-8,-3,-11c-4,-3,-8,-3,-13,0m502,-222c3,-6,1,-13,-4,-15c-6,-3,-12,0,-14,6c-1,5,0,8,4,11c4,3,8,3,14,-2m-168,-17c4,3,8,3,12,-1c4,-3,4,-6,3,-11c-2,-4,-5,-6,-9,-6c-4,0,-8,2,-10,6c-2,4,0,8,4,12m172,206c1,-6,-2,-10,-6,-11c-5,-2,-10,0,-12,4c-3,5,-1,11,3,14c6,3,12,1,15,-7m-254,-3c-3,-6,-7,-8,-12,-7c-4,1,-7,5,-8,10c0,5,5,10,11,10c6,0,10,-5,9,-13m501,14c3,-5,2,-10,-2,-13c-4,-3,-8,-3,-12,-1c-3,3,-5,6,-4,10c0,4,2,7,6,8c5,2,9,0,12,-4m-85,6c1,-4,2,-9,-2,-12c-2,-2,-6,-3,-9,-3c-5,1,-8,4,-8,9c-1,5,2,8,6,10c5,2,9,1,13,-4m-286,272c-6,4,-8,9,-5,14c3,5,9,7,14,4c4,-3,6,-8,4,-12c-1,-5,-6,-7,-13,-6m298,-166c-3,4,-3,9,0,12c2,2,6,4,9,4c5,0,8,-3,8,-8c1,-4,0,-8,-4,-10c-4,-3,-9,-2,-13,2m-221,-140c4,2,8,3,12,0c3,-3,5,-6,4,-10c-1,-5,-4,-8,-9,-8c-4,-1,-7,1,-10,5c-2,4,-1,8,3,13m-81,-129c-5,-3,-10,-3,-13,1c-4,3,-4,7,-3,11c2,4,5,6,9,6c3,-1,7,-3,9,-5c3,-4,2,-8,-2,-13m-32,397c-4,-3,-9,-4,-13,-1c-3,2,-5,6,-4,10c1,4,4,7,8,8c4,1,8,-1,10,-4c3,-4,2,-9,-1,-13m-208,-22c5,-2,7,-5,7,-10c0,-4,-2,-8,-7,-9c-4,-1,-8,0,-11,3c-3,4,-3,7,-1,11c2,5,6,6,12,5m-96,-382c3,-9,-5,-16,-11,-14c-5,1,-8,4,-8,9c-1,4,2,9,6,10c4,2,9,0,13,-5m440,400c3,-6,0,-13,-5,-15c-5,-1,-10,1,-13,6c-2,4,0,10,4,12c5,3,10,2,14,-3m-203,-225c-4,-3,-9,-4,-13,-1c-4,3,-5,6,-4,11c1,4,5,7,9,7c3,0,7,-2,9,-5c3,-3,2,-8,-1,-12m-291,-207c-1,2,-2,3,-2,4c-2,5,1,10,6,12c5,2,10,0,13,-5c2,-5,0,-11,-5,-13c-4,-2,-8,-1,-12,2m115,225c0,-1,1,-3,0,-4c-1,-4,-3,-7,-7,-8c-5,-1,-9,1,-11,4c-1,3,-2,8,0,10c1,3,5,5,9,6c4,0,7,-3,9,-8z">

        <animate
       attributeName="fill"
       attributeType="XML"
       values="#001528;black;#281500;#001528"
       keyTimes= "0; 0.8;0.8;  1"
       dur="10s"
       repeatCount="indefinite"/>
        <animateTransform attributeType="xml" attributeName="transform" type="rotate" from="0 400 400" to="360 400 400" dur="123.5s" additive="sum" repeatCount="indefinite" />
  </path>


</svg>